<svg viewBox="0 0 636 317.417" fill="none" xmlns="http://www.w3.org/2000/svg">
<g clip-path="url(#clip0)">
<path d="M635.754 158.696C637.963 117.393 623.422 75.3309 592.086 43.9586C533.543 -14.6529 437.749 -14.6529 379.205 43.9586L317.757 105.478L257.348 44.9985C200.583 -11.8241 108.943 -15.3226 49.2647 38.4156C21.0714 63.7954 4.91059 97.3179 0.676742 132.048H0.650335V132.268C-0.529156 142.023 0.192622 255.924 0.518303 300.083C0.58872 309.68 8.37864 317.417 17.973 317.417H618.545C628.184 317.417 636 309.592 636 299.951V158.714H635.762L635.754 158.696Z" fill="#F7F5ED"/>
<path d="M60.9742 155.697V186.709C60.9742 187.776 62.1185 188.507 63.5092 188.507H77.5489C78.9396 188.507 80.0839 189.653 80.0839 191.045V211.931C80.0839 213.324 78.9396 214.469 77.5489 214.469H37.789C36.3982 214.469 35.2539 213.324 35.2539 211.931V155.697C35.2539 154.305 36.3982 153.168 37.789 153.168H58.4479C59.8387 153.168 60.983 154.314 60.983 155.697" fill="#056131"/>
<path d="M88.496 153.159H128.256C129.647 153.159 130.791 154.305 130.791 155.688V171.869C130.791 173.261 129.647 174.398 128.256 174.398H114.216C112.825 174.398 111.681 175.138 111.681 176.196C111.681 177.253 112.825 178.073 114.216 178.073H124.172C125.562 178.073 126.707 179.218 126.707 180.611V186.991C126.707 188.384 125.562 189.529 124.172 189.529H114.216C112.825 189.529 111.681 190.261 111.681 191.327C111.681 192.393 112.825 193.204 114.216 193.204H128.256C129.647 193.204 130.791 194.35 130.791 195.742V211.923C130.791 213.315 129.647 214.461 128.256 214.461H88.496C87.1052 214.461 85.9609 213.315 85.9609 211.923V155.688C85.9609 154.296 87.1052 153.159 88.496 153.159Z" fill="#056131"/>
<path d="M138.231 214.786C137.086 214.619 136.268 213.561 136.268 212.416V196.235C136.268 194.438 137.738 193.292 139.533 193.618C142.632 194.191 147.614 194.922 153.327 194.922C159.779 194.922 161.328 190.675 155.774 190.349C142.06 189.529 136.021 182.99 136.021 171.472C136.021 157.001 145.986 151.687 161.081 151.687C169.004 151.687 175.693 152.339 182.225 153.732C183.29 153.978 184.02 154.877 184.02 156.023V171.551C184.02 173.675 182.225 174.9 180.103 174.248C177.489 173.516 173.651 172.697 168.59 172.697C162.789 172.697 161.24 176.125 166.301 176.46C178.22 177.279 185.649 181.122 185.649 195.257C185.649 211.358 176.345 215.941 159.277 215.941C148.01 215.941 141.32 215.2 138.213 214.795" fill="#056131"/>
<path d="M37.789 221.422H66.3612C83.7545 221.422 91.1836 226.243 91.1836 237.603C91.1836 245.939 86.0431 249.949 80.2424 250.76C78.9308 250.919 78.033 251.333 78.033 251.738C78.033 252.144 78.9308 252.558 80.3216 252.716C86.2807 253.448 92.812 257.458 92.812 266.367C92.812 274.457 86.6856 282.715 68.1568 282.715H37.789C36.3982 282.715 35.2539 281.569 35.2539 280.177V223.943C35.2539 222.55 36.3982 221.414 37.789 221.414M63.6677 246.274C64.812 245.948 65.5425 245.049 65.5425 241.7C65.5425 238.836 64.812 238.026 63.5004 237.858C62.0304 237.611 60.9742 238.836 60.9742 240.308V243.005C60.9742 245.375 62.1977 246.768 63.6677 246.274ZM63.5884 266.217C65.1376 265.971 66.3612 265.072 66.3612 262.128C66.3612 257.96 65.1376 257.22 63.4212 257.14C62.0304 257.061 60.9742 258.207 60.9742 260.41V263.759C60.9742 265.23 62.1185 266.535 63.5884 266.209" fill="#056131"/>
<path d="M96.1662 279.781L103.675 223.547C103.842 222.242 104.819 221.423 106.042 221.423H146.7C147.924 221.423 148.901 222.242 149.068 223.547L156.576 279.781C156.823 281.499 155.599 282.724 153.962 282.724H133.47C132.168 282.724 131.182 281.825 131.102 280.512L130.372 272.175C130.213 270.704 129.307 269.805 127.758 269.805H124.985C123.436 269.805 122.538 270.704 122.371 272.175L121.64 280.512C121.561 281.816 120.575 282.724 119.272 282.724H98.7805C97.1521 282.724 95.9198 281.499 96.1662 279.781ZM126.288 258.366H126.446C128.074 258.366 128.893 257.467 128.735 255.837L127.837 245.05C127.758 243.657 127.097 242.758 126.367 242.758C125.636 242.758 124.976 243.657 124.897 245.05L123.999 255.837C123.841 257.467 124.65 258.366 126.288 258.366Z" fill="#056131"/>
<path d="M187.271 223.96V254.972C187.271 256.039 188.415 256.77 189.806 256.77H203.846C205.237 256.77 206.381 257.916 206.381 259.308V280.194C206.381 281.587 205.237 282.733 203.846 282.733H164.086C162.695 282.733 161.551 281.587 161.551 280.194V223.96C161.551 222.568 162.695 221.431 164.086 221.431H184.745C186.136 221.431 187.28 222.577 187.28 223.96" fill="#056131"/>
<path d="M210.944 252.399C210.944 230.006 222.369 219.783 240.66 219.783C247.112 219.783 256.17 221.008 261.231 223.626C261.97 224.031 262.296 224.683 262.296 225.591L261.645 247.006C261.565 248.883 260.016 250.029 258.133 249.623C250.299 247.579 237.482 246.274 237.482 252.399C237.482 258.524 250.219 256.735 258.379 254.937C260.175 254.532 261.565 255.669 261.645 257.475L262.296 278.811C262.296 279.71 262.05 280.362 261.477 280.609C256.583 283.226 247.191 284.451 240.66 284.451C221.48 284.451 210.944 273.664 210.944 252.408" fill="#056131"/>
<path d="M267.768 252.399C267.768 230.006 279.193 219.792 297.484 219.792C315.775 219.792 327.201 230.006 327.201 252.399C327.201 274.792 316.427 284.442 297.484 284.442C278.542 284.442 267.768 273.656 267.768 252.399ZM297.484 261.961C299.526 261.961 300.67 258.612 300.67 252.232C300.67 245.367 299.447 242.256 297.484 242.256C295.521 242.256 294.298 245.358 294.298 252.232C294.298 258.603 295.442 261.961 297.484 261.961Z" fill="#056131"/>
<path d="M357.162 251.254C356.423 251.254 355.859 252.479 355.939 253.95L357.329 280.027C357.409 281.499 356.264 282.724 354.794 282.724H335.121C333.73 282.724 332.586 281.578 332.586 280.186V223.952C332.586 222.559 333.73 221.414 335.121 221.414H365.41C366.633 221.414 367.61 222.233 367.778 223.538L371.123 250.76C371.281 252.064 371.941 252.884 372.751 252.884C373.49 252.884 374.054 251.659 373.974 250.187L372.584 224.119C372.504 222.648 373.649 221.423 375.119 221.423H394.792C396.183 221.423 397.327 222.568 397.327 223.961V280.195C397.327 281.587 396.183 282.733 394.792 282.733H364.503C363.28 282.733 362.303 281.913 362.135 280.609L358.79 253.395C358.623 252.091 357.972 251.271 357.162 251.271" fill="#056131"/>
<path d="M404.92 283.05C403.776 282.883 402.957 281.825 402.957 280.68V264.5C402.957 262.702 404.427 261.556 406.223 261.882C409.321 262.455 414.304 263.186 420.016 263.186C426.468 263.186 428.018 258.939 422.463 258.613C408.749 257.793 402.711 251.254 402.711 239.727C402.711 225.265 412.675 219.951 427.771 219.951C435.693 219.951 442.383 220.603 448.914 221.996C449.979 222.242 450.71 223.141 450.71 224.287V239.815C450.71 241.939 448.914 243.164 446.793 242.512C444.178 241.78 440.341 240.961 435.279 240.961C429.487 240.961 427.929 244.398 432.991 244.724C444.909 245.543 452.338 249.386 452.338 263.521C452.338 279.622 443.034 284.205 425.967 284.205C414.7 284.205 408.01 283.465 404.903 283.059" fill="#056131"/>
</g>
<defs>
<clipPath id="clip0">
<rect width="636" height="317.417" fill="white"/>
</clipPath>
</defs>
</svg>
