<?xml version="1.0" encoding="UTF-8"?>
<svg id="Layer_2" data-name="Layer 2" xmlns="http://www.w3.org/2000/svg" viewBox="0 0 902.78 176.55">
  <defs>
    <style>
      .cls-1 {
        fill: #056131;
      }
    </style>
  </defs>
  <g id="Layer_1-2" data-name="Layer 1">
    <g>
      <g>
        <path class="cls-1" d="M39.27,6.23v47.31c0,1.62,1.74,2.74,3.86,2.74h21.44c2.12,0,3.87,1.75,3.87,3.87v31.86c0,2.12-1.75,3.87-3.87,3.87H3.87c-2.12,0-3.87-1.75-3.87-3.87V6.23c0-2.12,1.75-3.86,3.87-3.86h31.54c2.12,0,3.87,1.75,3.87,3.86Z"/>
        <path class="cls-1" d="M81.31,2.36h60.72c2.12,0,3.87,1.75,3.87,3.86v24.69c0,2.12-1.75,3.86-3.87,3.86h-21.44c-2.12,0-3.86,1.12-3.86,2.74s1.74,2.87,3.86,2.87h15.21c2.12,0,3.87,1.75,3.87,3.87v9.73c0,2.12-1.75,3.87-3.87,3.87h-15.21c-2.12,0-3.86,1.12-3.86,2.74s1.74,2.87,3.86,2.87h21.44c2.12,0,3.87,1.75,3.87,3.87v24.69c0,2.12-1.75,3.87-3.87,3.87h-60.72c-2.12,0-3.87-1.75-3.87-3.87V6.23c0-2.12,1.75-3.86,3.87-3.86Z"/>
        <path class="cls-1" d="M157.26,96.37c-1.75-.25-2.99-1.87-2.99-3.62v-24.69c0-2.74,2.24-4.49,4.99-3.99,4.74.87,12.34,1.99,21.07,1.99,9.85,0,12.22-6.48,3.74-6.98-20.95-1.25-30.17-11.22-30.17-28.8C153.9,8.22,169.11.12,192.17.12c12.09,0,22.32,1,32.29,3.12,1.62.37,2.74,1.74,2.74,3.49v23.69c0,3.24-2.74,5.11-5.98,4.11-3.99-1.12-9.85-2.37-17.58-2.37-8.85,0-11.22,5.24-3.49,5.73,18.2,1.25,29.55,7.11,29.55,28.68,0,24.56-14.21,31.54-40.27,31.54-17.21,0-27.43-1.12-32.17-1.75Z"/>
        <path class="cls-1" d="M269.64,2.49h43.64c26.56,0,37.9,7.36,37.9,24.69,0,12.72-7.86,18.83-16.71,20.07-2,.25-3.37.87-3.37,1.5s1.37,1.25,3.49,1.5c9.1,1.12,19.08,7.23,19.08,20.82,0,12.34-9.35,24.94-37.65,24.94h-46.38c-2.12,0-3.87-1.75-3.87-3.87V6.36c0-2.12,1.75-3.86,3.87-3.86ZM309.17,40.39c1.75-.5,2.87-1.87,2.87-6.98,0-4.36-1.12-5.61-3.12-5.86-2.24-.37-3.86,1.5-3.86,3.74v4.11c0,3.62,1.87,5.74,4.11,4.99ZM309.04,70.82c2.37-.37,4.24-1.75,4.24-6.23,0-6.36-1.87-7.48-4.49-7.61-2.12-.12-3.74,1.62-3.74,4.99v5.11c0,2.24,1.74,4.24,3.99,3.74Z"/>
        <path class="cls-1" d="M358.79,91.51l11.47-85.78c.25-1.99,1.75-3.24,3.62-3.24h62.09c1.87,0,3.37,1.25,3.62,3.24l11.47,85.78c.37,2.62-1.5,4.49-3.99,4.49h-31.29c-1.99,0-3.49-1.37-3.62-3.37l-1.12-12.72c-.25-2.24-1.62-3.62-3.99-3.62h-4.24c-2.37,0-3.74,1.37-3.99,3.62l-1.12,12.72c-.12,1.99-1.62,3.37-3.62,3.37h-31.29c-2.49,0-4.36-1.87-3.99-4.49ZM404.8,58.85h.25c2.49,0,3.74-1.37,3.49-3.86l-1.37-16.46c-.12-2.12-1.12-3.49-2.24-3.49s-2.12,1.37-2.24,3.49l-1.37,16.46c-.25,2.49,1,3.86,3.49,3.86Z"/>
        <path class="cls-1" d="M497.94,6.36v47.31c0,1.62,1.74,2.74,3.86,2.74h21.44c2.12,0,3.87,1.75,3.87,3.87v31.86c0,2.12-1.75,3.87-3.87,3.87h-60.72c-2.12,0-3.87-1.75-3.87-3.87V6.36c0-2.12,1.75-3.86,3.87-3.86h31.54c2.12,0,3.87,1.75,3.87,3.86Z"/>
        <path class="cls-1" d="M534.09,49.75c0-34.16,17.45-49.75,45.38-49.75,9.85,0,23.69,1.87,31.42,5.86,1.12.62,1.62,1.62,1.62,2.99l-1,32.67c-.12,2.87-2.49,4.61-5.36,3.99-11.97-3.12-31.54-5.11-31.54,4.24s19.45,6.61,31.92,3.87c2.74-.62,4.86,1.12,4.99,3.87l1,32.54c0,1.37-.37,2.37-1.25,2.74-7.48,3.99-21.82,5.86-31.79,5.86-29.3,0-45.38-16.46-45.38-48.87Z"/>
        <path class="cls-1" d="M620.87,49.75c0-34.16,17.45-49.75,45.38-49.75s45.38,15.58,45.38,49.75-16.46,48.87-45.38,48.87-45.38-16.46-45.38-48.87ZM666.26,64.33c3.12,0,4.86-5.11,4.86-14.84,0-10.47-1.87-15.21-4.86-15.21s-4.86,4.74-4.86,15.21c0,9.73,1.74,14.84,4.86,14.84Z"/>
        <path class="cls-1" d="M757.4,48c-1.12,0-2,1.87-1.87,4.12l2.12,39.77c.12,2.24-1.62,4.11-3.87,4.11h-30.05c-2.12,0-3.87-1.75-3.87-3.87V6.36c0-2.12,1.75-3.86,3.87-3.86h46.26c1.87,0,3.37,1.25,3.62,3.24l5.11,41.52c.25,1.99,1.25,3.24,2.49,3.24,1.12,0,1.99-1.87,1.87-4.11l-2.12-39.77c-.12-2.24,1.62-4.11,3.86-4.11h30.05c2.12,0,3.87,1.75,3.87,3.86v85.78c0,2.12-1.75,3.87-3.87,3.87h-46.26c-1.87,0-3.37-1.25-3.62-3.24l-5.11-41.52c-.25-2-1.25-3.24-2.49-3.24Z"/>
        <path class="cls-1" d="M830.34,96.5c-1.75-.25-2.99-1.87-2.99-3.62v-24.69c0-2.74,2.24-4.49,4.99-3.99,4.74.87,12.34,1.99,21.07,1.99,9.85,0,12.22-6.48,3.74-6.98-20.95-1.25-30.17-11.22-30.17-28.8,0-22.07,15.21-30.17,38.28-30.17,12.09,0,22.32,1,32.29,3.12,1.62.37,2.74,1.74,2.74,3.49v23.69c0,3.24-2.74,5.11-5.98,4.11-3.99-1.12-9.85-2.37-17.58-2.37-8.85,0-11.22,5.24-3.49,5.73,18.2,1.25,29.55,7.11,29.55,28.68,0,24.56-14.21,31.54-40.27,31.54-17.21,0-27.43-1.12-32.17-1.75Z"/>
      </g>
      <g>
        <path class="cls-1" d="M154.72,167.7l11.4-32.99h9.15l11.35,32.99h-6.85l-8.75-27.89h-.65l-8.8,27.89h-6.85ZM160.77,160.95v-4.5h20.7v4.5h-20.7Z"/>
        <path class="cls-1" d="M198.66,168.35c-3,0-5.26-1.02-6.77-3.07-1.52-2.05-2.27-5.17-2.27-9.37v-14.35h6.35v13.7c0,2.67.39,4.63,1.17,5.9.78,1.27,2.01,1.9,3.67,1.9.97,0,1.82-.24,2.55-.72.73-.48,1.38-1.17,1.92-2.05.55-.88.97-1.93,1.27-3.15.3-1.22.48-2.56.55-4.02v-11.55h6.3v26.15h-5.25l.15-8.5h-.85c-.43,2.13-1.03,3.87-1.8,5.22-.77,1.35-1.72,2.34-2.87,2.97-1.15.63-2.52.95-4.12.95Z"/>
        <path class="cls-1" d="M235.06,168.35c-1.63,0-3.06-.33-4.27-.97-1.22-.65-2.2-1.59-2.95-2.82-.75-1.23-1.29-2.7-1.62-4.4h-.8l.05,7.55h-5.35v-35.34h6.3v8.25c0,.83-.04,1.72-.13,2.67-.08.95-.21,1.93-.37,2.93-.17,1-.35,2.03-.55,3.1h.95c.4-1.67.97-3.12,1.7-4.37.73-1.25,1.69-2.22,2.87-2.92,1.18-.7,2.61-1.05,4.27-1.05,2.17,0,4.03.57,5.6,1.7,1.57,1.13,2.78,2.73,3.65,4.77.87,2.05,1.3,4.47,1.3,7.27s-.43,5.22-1.3,7.25c-.87,2.03-2.08,3.61-3.65,4.72-1.57,1.12-3.47,1.68-5.7,1.68ZM233.06,163.15c1.23,0,2.31-.35,3.22-1.05.92-.7,1.62-1.68,2.1-2.95.48-1.27.72-2.75.72-4.45s-.23-3.18-.7-4.45c-.47-1.27-1.14-2.27-2.02-3-.88-.73-1.97-1.1-3.27-1.1-.87,0-1.66.17-2.37.52-.72.35-1.34.82-1.87,1.4-.53.58-.98,1.22-1.35,1.92-.37.7-.64,1.42-.82,2.17-.18.75-.27,1.46-.27,2.13v.8c0,.87.14,1.77.42,2.72.28.95.7,1.82,1.25,2.62.55.8,1.24,1.45,2.07,1.95.83.5,1.8.75,2.9.75Z"/>
        <path class="cls-1" d="M262.95,168.35c-2.13,0-4.02-.3-5.65-.9-1.63-.6-3.02-1.48-4.15-2.65-1.13-1.17-1.98-2.57-2.55-4.2-.57-1.63-.85-3.47-.85-5.5s.27-3.92.82-5.65c.55-1.73,1.38-3.24,2.47-4.52,1.1-1.28,2.44-2.28,4.02-2.97,1.58-.7,3.39-1.05,5.42-1.05,1.9,0,3.61.32,5.12.95,1.52.63,2.78,1.58,3.8,2.85,1.02,1.27,1.77,2.82,2.25,4.65.48,1.83.64,3.95.48,6.35l-20.35.15v-3.65l16.55-.15-2.05,2.05c.17-1.87.02-3.4-.45-4.6-.47-1.2-1.17-2.1-2.1-2.7-.93-.6-2-.9-3.2-.9-1.37,0-2.56.37-3.57,1.1-1.02.73-1.8,1.77-2.35,3.1-.55,1.33-.82,2.95-.82,4.85,0,2.9.63,5.07,1.9,6.5,1.27,1.43,3.03,2.15,5.3,2.15.97,0,1.8-.13,2.5-.37.7-.25,1.27-.59,1.72-1.02.45-.43.82-.93,1.1-1.48.28-.55.49-1.11.63-1.67l5.55,1.1c-.27,1.23-.68,2.35-1.25,3.35-.57,1-1.32,1.87-2.27,2.6-.95.73-2.08,1.29-3.4,1.68-1.32.38-2.86.57-4.62.57Z"/>
        <path class="cls-1" d="M279.6,167.7v-26.15h5.35l-.15,9.25h.9c.27-2.2.72-4.02,1.35-5.47.63-1.45,1.51-2.54,2.62-3.27,1.12-.73,2.47-1.1,4.07-1.1.37,0,.75.03,1.15.08.4.05.85.16,1.35.32l-.3,6.7c-.53-.23-1.08-.4-1.65-.5-.57-.1-1.08-.15-1.55-.15-1.3,0-2.42.34-3.35,1.02-.93.68-1.68,1.65-2.25,2.9-.57,1.25-.97,2.74-1.2,4.47v11.9h-6.35Z"/>
        <path class="cls-1" d="M310.24,176.55c-2.83,0-5.15-.22-6.95-.65-1.8-.43-3.12-1.08-3.95-1.95-.83-.87-1.25-1.92-1.25-3.15,0-1.53.6-2.78,1.8-3.75s3-1.58,5.4-1.85v-.9c-1.83.03-3.22-.16-4.15-.57-.93-.42-1.4-1.11-1.4-2.07,0-.9.47-1.7,1.4-2.4.93-.7,2.47-1.27,4.6-1.7v-.9c-2.03-.17-3.62-.84-4.75-2.02-1.13-1.18-1.7-2.72-1.7-4.62,0-1.7.46-3.19,1.37-4.47.92-1.28,2.27-2.3,4.07-3.05,1.8-.75,3.98-1.12,6.55-1.12h12.95v5l-8.25-1.2v1c2.13.37,3.68.97,4.65,1.8.97.83,1.45,1.97,1.45,3.4s-.43,2.57-1.27,3.62c-.85,1.05-2.09,1.87-3.72,2.45-1.63.58-3.62.87-5.95.87-.47,0-.96-.02-1.47-.05-.52-.03-1.28-.12-2.28-.25-.73.47-1.32.89-1.75,1.28-.43.38-.65.74-.65,1.07,0,.27.17.48.5.65.33.17.75.28,1.25.35.5.07,1,.1,1.5.1h7.05c.67,0,1.52.05,2.57.15,1.05.1,2.1.37,3.15.8,1.05.43,1.93,1.12,2.65,2.05.72.93,1.07,2.23,1.07,3.9,0,1.9-.53,3.46-1.6,4.67-1.07,1.22-2.67,2.11-4.82,2.67-2.15.57-4.84.85-8.07.85ZM310.74,171.4c2.1,0,3.77-.12,5-.35,1.23-.23,2.12-.6,2.65-1.1.53-.5.8-1.13.8-1.9s-.17-1.3-.5-1.7c-.33-.4-.76-.68-1.27-.85-.52-.17-1.04-.27-1.57-.3-.53-.03-.98-.05-1.35-.05h-6.2c-1.57.27-2.67.72-3.3,1.35s-.95,1.35-.95,2.15.27,1.35.8,1.75c.53.4,1.3.67,2.3.8s2.2.2,3.6.2ZM310.94,154.81c1.73,0,3.04-.41,3.92-1.22.88-.82,1.32-1.89,1.32-3.22,0-1.4-.45-2.55-1.35-3.45s-2.22-1.35-3.95-1.35-3.02.44-3.95,1.32c-.93.88-1.4,2.02-1.4,3.42,0,.87.21,1.64.63,2.32.42.68,1.02,1.22,1.82,1.6.8.38,1.78.57,2.95.57Z"/>
        <path class="cls-1" d="M340.84,168.35c-2.13,0-4.02-.3-5.65-.9-1.63-.6-3.02-1.48-4.15-2.65-1.13-1.17-1.98-2.57-2.55-4.2-.57-1.63-.85-3.47-.85-5.5s.27-3.92.82-5.65c.55-1.73,1.38-3.24,2.47-4.52,1.1-1.28,2.44-2.28,4.02-2.97,1.58-.7,3.39-1.05,5.42-1.05,1.9,0,3.61.32,5.12.95,1.52.63,2.78,1.58,3.8,2.85,1.02,1.27,1.77,2.82,2.25,4.65.48,1.83.64,3.95.48,6.35l-20.35.15v-3.65l16.55-.15-2.05,2.05c.17-1.87.02-3.4-.45-4.6-.47-1.2-1.17-2.1-2.1-2.7-.93-.6-2-.9-3.2-.9-1.37,0-2.56.37-3.57,1.1-1.02.73-1.8,1.77-2.35,3.1-.55,1.33-.82,2.95-.82,4.85,0,2.9.63,5.07,1.9,6.5,1.27,1.43,3.03,2.15,5.3,2.15.97,0,1.8-.13,2.5-.37.7-.25,1.27-.59,1.72-1.02.45-.43.82-.93,1.1-1.48.28-.55.49-1.11.63-1.67l5.55,1.1c-.27,1.23-.68,2.35-1.25,3.35-.57,1-1.32,1.87-2.27,2.6-.95.73-2.08,1.29-3.4,1.68-1.32.38-2.86.57-4.62.57Z"/>
        <path class="cls-1" d="M375.73,168.4c-1.67,0-3.16-.32-4.47-.95-1.32-.63-2.35-1.53-3.1-2.7-.75-1.17-1.12-2.55-1.12-4.15,0-1.5.32-2.78.95-3.85.63-1.07,1.45-1.95,2.45-2.65,1-.7,2.08-1.26,3.25-1.68,1.17-.42,2.3-.71,3.4-.87l.25,1.35c-1.43.8-2.52,1.72-3.25,2.77-.73,1.05-1.1,2.14-1.1,3.27,0,1,.24,1.88.73,2.65.48.77,1.15,1.37,2,1.8.85.43,1.84.65,2.97.65,1,0,1.89-.19,2.67-.57.78-.38,1.52-.89,2.22-1.52l1,1.85h-1.05c-.47.93-1.07,1.74-1.8,2.42-.73.68-1.59,1.22-2.57,1.6-.98.38-2.12.57-3.42.57ZM393.58,168.35c-1.73,0-3.43-.41-5.1-1.22-1.67-.82-3.23-1.94-4.7-3.37-1.47-1.43-2.8-3.03-4-4.8-1.2-1.77-2.25-3.59-3.15-5.47s-1.59-3.72-2.07-5.52c-.48-1.8-.73-3.42-.73-4.85,0-1.63.33-3.14,1-4.52.67-1.38,1.71-2.5,3.12-3.35,1.42-.85,3.22-1.28,5.42-1.28,2,0,3.69.35,5.07,1.05,1.38.7,2.42,1.63,3.12,2.8.7,1.17,1.05,2.43,1.05,3.8,0,1.17-.28,2.27-.85,3.32-.57,1.05-1.47,2-2.72,2.85-1.25.85-2.94,1.57-5.07,2.17l-.45-1c1.13-1,1.97-2.01,2.5-3.02.53-1.02.8-2.06.8-3.12s-.27-1.97-.8-2.7c-.53-.73-1.38-1.1-2.55-1.1-.8,0-1.45.18-1.95.55-.5.37-.86.87-1.08,1.5-.22.63-.32,1.33-.32,2.1,0,.97.18,2.12.55,3.47.37,1.35.87,2.77,1.5,4.27.63,1.5,1.37,2.97,2.22,4.4.85,1.43,1.78,2.74,2.77,3.92,1,1.18,2.04,2.12,3.12,2.82,1.08.7,2.14,1.05,3.17,1.05.83,0,1.49-.22,1.97-.65.48-.43.73-1,.73-1.7s-.28-1.47-.85-2.2c-.57-.73-1.38-1.41-2.45-2.02-1.07-.62-2.38-1.07-3.95-1.37v-5.1h11.55v4.75l-8.9-1.35v.9c3.4.63,5.91,1.58,7.52,2.85,1.62,1.27,2.42,2.9,2.42,4.9,0,1.23-.27,2.26-.8,3.07-.53.82-1.22,1.46-2.07,1.92-.85.47-1.72.79-2.62.97-.9.18-1.72.28-2.45.28Z"/>
        <path class="cls-1" d="M418.52,167.7v-32.99h13.05c1.97,0,3.74.17,5.32.52,1.58.35,2.93.87,4.05,1.57,1.12.7,1.97,1.6,2.55,2.7.58,1.1.87,2.4.87,3.9,0,1.3-.27,2.44-.8,3.42-.53.98-1.37,1.78-2.5,2.4-1.13.62-2.63,1.04-4.5,1.28v.65c3.17.23,5.48,1.03,6.95,2.4,1.47,1.37,2.2,3.18,2.2,5.45,0,1.9-.48,3.49-1.45,4.77-.97,1.28-2.4,2.26-4.3,2.92-1.9.67-4.28,1-7.15,1h-14.3ZM424.57,148.81h5.5c2.77,0,4.81-.38,6.12-1.15,1.32-.77,1.97-1.92,1.97-3.45s-.59-2.61-1.77-3.33c-1.18-.72-2.97-1.07-5.37-1.07h-6.45v9ZM424.57,162.55h8.3c2.23,0,3.9-.36,5-1.08,1.1-.72,1.65-1.82,1.65-3.32,0-1.73-.71-3.02-2.12-3.87-1.42-.85-3.56-1.28-6.42-1.28h-6.4v9.55Z"/>
        <path class="cls-1" d="M454.61,137.66c-1.3,0-2.28-.28-2.95-.83-.67-.55-1-1.34-1-2.37s.34-1.82,1.02-2.37c.68-.55,1.66-.83,2.92-.83s2.29.28,2.97.83c.68.55,1.02,1.34,1.02,2.37s-.34,1.82-1.02,2.37c-.68.55-1.67.83-2.97.83ZM451.41,167.7v-26.15h6.3v26.15h-6.3Z"/>
        <path class="cls-1" d="M474.71,168.35c-1.77,0-3.36-.17-4.77-.53-1.42-.35-2.63-.86-3.65-1.52-1.02-.67-1.82-1.48-2.4-2.45-.58-.97-.92-2.05-1.02-3.25l5-1.65c.1.9.44,1.71,1.02,2.42.58.72,1.4,1.27,2.45,1.65,1.05.38,2.31.57,3.77.57,1.63,0,2.91-.26,3.82-.77.92-.52,1.37-1.26,1.37-2.22,0-.7-.25-1.26-.75-1.68-.5-.42-1.22-.77-2.15-1.05-.93-.28-2.07-.56-3.4-.83-1.27-.27-2.52-.57-3.77-.93-1.25-.35-2.4-.82-3.45-1.4-1.05-.58-1.89-1.35-2.52-2.3-.63-.95-.95-2.14-.95-3.57,0-1.6.43-2.99,1.27-4.17.85-1.18,2.09-2.11,3.72-2.77,1.63-.67,3.58-1,5.85-1s4.04.31,5.62.93,2.87,1.49,3.87,2.62c1,1.13,1.6,2.52,1.8,4.15l-5.2,1.5c-.1-.93-.41-1.73-.92-2.4-.52-.67-1.22-1.17-2.1-1.52-.88-.35-1.92-.53-3.12-.53-1.53,0-2.73.27-3.6.8-.87.53-1.3,1.27-1.3,2.2,0,.7.27,1.27.83,1.7.55.43,1.31.78,2.27,1.05.97.27,2.1.55,3.4.85,1.3.23,2.57.52,3.82.88,1.25.35,2.37.81,3.37,1.37s1.8,1.31,2.4,2.22c.6.92.9,2.11.9,3.57,0,1.7-.46,3.16-1.38,4.37-.92,1.22-2.23,2.13-3.95,2.75-1.72.62-3.77.93-6.17.93Z"/>
        <path class="cls-1" d="M500.4,168.3c-2.77,0-4.81-.74-6.12-2.22-1.32-1.48-1.97-3.79-1.97-6.92v-12.55h-3.75l.1-4.9h2.35c1.03-.03,1.79-.23,2.27-.6.48-.37.77-.98.87-1.85l.55-3.5h3.7v5.8h6.8v5.25h-6.8v12.1c0,1.27.29,2.17.88,2.73.58.55,1.44.82,2.58.82.6,0,1.21-.07,1.82-.22.62-.15,1.19-.39,1.73-.73v5.95c-1,.33-1.92.56-2.75.68-.83.12-1.58.17-2.25.17Z"/>
        <path class="cls-1" d="M510.35,167.7v-26.15h5.35l-.15,9.25h.9c.27-2.2.72-4.02,1.35-5.47s1.51-2.54,2.62-3.27c1.12-.73,2.48-1.1,4.07-1.1.37,0,.75.03,1.15.08.4.05.85.16,1.35.32l-.3,6.7c-.53-.23-1.08-.4-1.65-.5-.57-.1-1.08-.15-1.55-.15-1.3,0-2.42.34-3.35,1.02-.93.68-1.68,1.65-2.25,2.9-.57,1.25-.97,2.74-1.2,4.47v11.9h-6.35Z"/>
        <path class="cls-1" d="M542.55,168.35c-2.57,0-4.83-.53-6.8-1.57-1.97-1.05-3.5-2.59-4.6-4.62-1.1-2.03-1.65-4.57-1.65-7.6s.57-5.61,1.7-7.62c1.13-2.02,2.68-3.52,4.65-4.52,1.97-1,4.18-1.5,6.65-1.5s4.78.52,6.75,1.55c1.97,1.03,3.52,2.57,4.65,4.62,1.13,2.05,1.7,4.59,1.7,7.62s-.57,5.62-1.72,7.65c-1.15,2.03-2.71,3.54-4.67,4.52-1.97.98-4.18,1.48-6.65,1.48ZM542.75,163.55c1.37,0,2.53-.32,3.5-.97s1.71-1.62,2.22-2.92c.52-1.3.77-2.85.77-4.65,0-1.9-.27-3.52-.8-4.87s-1.32-2.39-2.35-3.13c-1.03-.73-2.28-1.1-3.75-1.1-1.37,0-2.53.32-3.5.97-.97.65-1.71,1.62-2.22,2.9-.52,1.28-.77,2.84-.77,4.67,0,2.93.61,5.18,1.82,6.75,1.22,1.57,2.91,2.35,5.07,2.35Z"/>
        <path class="cls-1" d="M584.39,168.35c-2.23,0-4.17-.33-5.82-1-1.65-.67-3.02-1.61-4.1-2.82-1.08-1.22-1.89-2.64-2.42-4.27-.53-1.63-.8-3.4-.8-5.3,0-2,.28-3.85.83-5.55.55-1.7,1.37-3.19,2.47-4.47,1.1-1.28,2.45-2.28,4.05-2.97,1.6-.7,3.45-1.05,5.55-1.05s4.03.37,5.6,1.1c1.57.73,2.82,1.74,3.75,3.02.93,1.28,1.53,2.77,1.8,4.47l-5.85,1.7c-.07-1.03-.33-1.95-.8-2.75s-1.1-1.42-1.9-1.85c-.8-.43-1.73-.65-2.8-.65s-1.94.2-2.72.6c-.78.4-1.44.98-1.97,1.75-.53.77-.93,1.68-1.2,2.75-.27,1.07-.4,2.28-.4,3.65,0,1.87.25,3.46.75,4.77.5,1.32,1.26,2.32,2.27,3.02,1.02.7,2.29,1.05,3.82,1.05,1.33,0,2.42-.27,3.27-.8.85-.53,1.49-1.22,1.93-2.08.43-.85.7-1.77.8-2.77l5.6,1.15c-.13,1.33-.48,2.57-1.05,3.72-.57,1.15-1.33,2.14-2.3,2.97-.97.83-2.14,1.47-3.52,1.92-1.38.45-2.99.68-4.82.68Z"/>
        <path class="cls-1" d="M609.03,168.35c-3,0-5.26-1.02-6.77-3.07-1.52-2.05-2.28-5.17-2.28-9.37v-14.35h6.35v13.7c0,2.67.39,4.63,1.17,5.9.78,1.27,2.01,1.9,3.67,1.9.97,0,1.82-.24,2.55-.72.73-.48,1.37-1.17,1.92-2.05.55-.88.97-1.93,1.28-3.15.3-1.22.48-2.56.55-4.02v-11.55h6.3v26.15h-5.25l.15-8.5h-.85c-.43,2.13-1.03,3.87-1.8,5.22-.77,1.35-1.72,2.34-2.87,2.97-1.15.63-2.53.95-4.13.95Z"/>
        <path class="cls-1" d="M630.48,167.7v-35.34h6.25v35.34h-6.25Z"/>
        <path class="cls-1" d="M652.82,168.3c-2.77,0-4.81-.74-6.12-2.22-1.32-1.48-1.97-3.79-1.97-6.92v-12.55h-3.75l.1-4.9h2.35c1.03-.03,1.79-.23,2.27-.6.48-.37.77-.98.88-1.85l.55-3.5h3.7v5.8h6.8v5.25h-6.8v12.1c0,1.27.29,2.17.88,2.73.58.55,1.44.82,2.57.82.6,0,1.21-.07,1.82-.22.62-.15,1.19-.39,1.72-.73v5.95c-1,.33-1.92.56-2.75.68-.83.12-1.58.17-2.25.17Z"/>
        <path class="cls-1" d="M671.42,168.35c-3,0-5.26-1.02-6.77-3.07-1.52-2.05-2.28-5.17-2.28-9.37v-14.35h6.35v13.7c0,2.67.39,4.63,1.17,5.9.78,1.27,2.01,1.9,3.67,1.9.97,0,1.82-.24,2.55-.72.73-.48,1.37-1.17,1.92-2.05.55-.88.97-1.93,1.28-3.15.3-1.22.48-2.56.55-4.02v-11.55h6.3v26.15h-5.25l.15-8.5h-.85c-.43,2.13-1.03,3.87-1.8,5.22-.77,1.35-1.72,2.34-2.87,2.97-1.15.63-2.53.95-4.13.95Z"/>
        <path class="cls-1" d="M692.87,167.7v-26.15h5.35l-.15,9.25h.9c.27-2.2.72-4.02,1.35-5.47s1.51-2.54,2.62-3.27c1.12-.73,2.48-1.1,4.07-1.1.37,0,.75.03,1.15.08.4.05.85.16,1.35.32l-.3,6.7c-.53-.23-1.08-.4-1.65-.5-.57-.1-1.08-.15-1.55-.15-1.3,0-2.42.34-3.35,1.02-.93.68-1.68,1.65-2.25,2.9-.57,1.25-.97,2.74-1.2,4.47v11.9h-6.35Z"/>
        <path class="cls-1" d="M725.16,168.35c-2.13,0-4.02-.3-5.65-.9-1.63-.6-3.02-1.48-4.15-2.65-1.13-1.17-1.98-2.57-2.55-4.2-.57-1.63-.85-3.47-.85-5.5s.28-3.92.83-5.65c.55-1.73,1.37-3.24,2.47-4.52,1.1-1.28,2.44-2.28,4.02-2.97,1.58-.7,3.39-1.05,5.42-1.05,1.9,0,3.61.32,5.12.95,1.52.63,2.78,1.58,3.8,2.85,1.02,1.27,1.77,2.82,2.25,4.65s.64,3.95.48,6.35l-20.35.15v-3.65l16.55-.15-2.05,2.05c.17-1.87.02-3.4-.45-4.6-.47-1.2-1.17-2.1-2.1-2.7-.93-.6-2-.9-3.2-.9-1.37,0-2.56.37-3.57,1.1-1.02.73-1.8,1.77-2.35,3.1s-.83,2.95-.83,4.85c0,2.9.63,5.07,1.9,6.5,1.27,1.43,3.03,2.15,5.3,2.15.97,0,1.8-.13,2.5-.37.7-.25,1.28-.59,1.73-1.02.45-.43.82-.93,1.1-1.48s.49-1.11.63-1.67l5.55,1.1c-.27,1.23-.68,2.35-1.25,3.35-.57,1-1.32,1.87-2.27,2.6-.95.73-2.08,1.29-3.4,1.68-1.32.38-2.86.57-4.62.57Z"/>
        <path class="cls-1" d="M741.81,167.7v-35.34h6.25v35.34h-6.25Z"/>
      </g>
    </g>
  </g>
</svg>
