<svg viewBox="0 0 285 52.0693" fill="none" xmlns="http://www.w3.org/2000/svg">
<path d="M201.88 26.7109C204.413 26.7109 207.971 27.191 209.959 28.2188C210.247 28.3778 210.375 28.6354 210.375 28.9902L210.118 37.3896C210.088 38.1268 209.476 38.5762 208.738 38.4141C205.661 37.6127 200.63 37.0991 200.629 39.5029C200.629 41.9072 205.63 41.2006 208.836 40.4971C209.542 40.338 210.087 40.7849 210.118 41.4912L210.375 49.8574C210.375 50.2092 210.28 50.4666 210.054 50.5645C208.13 51.5892 204.443 52.0693 201.88 52.0693C194.346 52.0692 190.211 47.8384 190.211 39.5029L190.224 38.6904C190.494 30.4688 194.922 26.7111 201.88 26.7109ZM224.191 26.7109C231.374 26.7109 235.861 30.718 235.861 39.5C235.861 48.2822 231.631 52.0664 224.191 52.0664C216.752 52.0663 212.522 47.8355 212.522 39.5C212.522 30.715 217.009 26.711 224.191 26.7109ZM275.349 26.7754C278.46 26.7754 281.088 27.0317 283.651 27.5762C284.067 27.6711 284.357 28.0263 284.357 28.4727V34.5635C284.357 35.3952 283.651 35.8786 282.819 35.6221C281.795 35.3345 280.286 35.0127 278.298 35.0127C276.022 35.0127 275.413 36.3588 277.401 36.4873C282.082 36.8085 285 38.3135 285 43.8594C285 50.173 281.345 51.9687 274.646 51.9688C270.222 51.9688 267.595 51.6807 266.374 51.5186L266.294 51.5059C265.888 51.4054 265.606 51.0132 265.606 50.5918V44.2451C265.606 43.5386 266.184 43.0914 266.888 43.2197C268.105 43.443 270.063 43.7344 272.306 43.7344C274.838 43.7342 275.447 42.0669 273.266 41.9385C267.882 41.6172 265.509 39.0533 265.509 34.5322C265.509 28.8583 269.421 26.7755 275.349 26.7754ZM61.7442 7.14941C71.2758 -2.38226 86.8756 -2.38226 96.4073 7.14941C101.51 12.2548 103.881 19.0941 103.52 25.8115V25.8145H103.56V48.7842C103.56 50.3534 102.287 51.626 100.718 51.626H2.92679C1.36367 51.626 0.0972335 50.3657 0.084993 48.8057C0.0329909 41.6263 -0.0872128 23.1013 0.105501 21.5137V21.4766H0.109407C0.797766 15.8269 3.42822 10.3755 8.01956 6.24609C17.7378 -2.49305 32.6594 -1.92373 41.9004 7.32031L51.7383 17.1543L61.7442 7.14941ZM133.434 27.3506C140.261 27.3507 143.179 29.2407 143.179 33.6973C143.179 36.9673 141.16 38.5372 138.884 38.8584C138.37 38.9226 138.019 39.0812 138.019 39.2432C138.019 39.4053 138.371 39.5647 138.915 39.6289C141.255 39.9165 143.821 41.4892 143.821 44.9824C143.821 48.1575 141.417 51.3936 134.14 51.3936H122.216C121.671 51.3935 121.222 50.9438 121.222 50.3994V28.3447C121.222 27.8003 121.671 27.3507 122.216 27.3506H133.434ZM164.98 27.3506C165.46 27.3506 165.846 27.6716 165.91 28.1855L168.858 50.2402C168.953 50.9131 168.473 51.3935 167.834 51.3936H159.789C159.275 51.3936 158.892 51.0412 158.858 50.5273L158.571 47.2578C158.507 46.6798 158.155 46.3282 157.547 46.3281H156.458C155.849 46.3281 155.497 46.6797 155.433 47.2578L155.146 50.5273C155.115 51.0411 154.73 51.3934 154.216 51.3936H146.17C145.528 51.3933 145.048 50.913 145.146 50.2402L148.085 28.1855C148.149 27.6716 148.535 27.3506 149.016 27.3506H164.98ZM179.914 27.3506C180.459 27.3507 180.908 27.8003 180.908 28.3447L180.911 40.5098C180.911 40.9258 181.361 41.2129 181.905 41.2129H187.418C187.962 41.2132 188.412 41.6629 188.412 42.207V50.3994C188.412 50.9437 187.962 51.3933 187.418 51.3936H171.805C171.26 51.3936 170.811 50.9439 170.811 50.3994V28.3447C170.811 27.8002 171.26 27.3506 171.805 27.3506H179.914ZM250.86 27.3506C251.341 27.3506 251.726 27.6718 251.79 28.1826L253.106 38.8584C253.17 39.372 253.427 39.6934 253.748 39.6934C254.036 39.6932 254.262 39.2127 254.229 38.6348L253.684 28.4082C253.653 27.8303 254.1 27.3506 254.678 27.3506H262.404C262.949 27.3506 263.398 27.8002 263.398 28.3447V50.3994C263.398 50.9439 262.949 51.3936 262.404 51.3936H250.512C250.032 51.3936 249.646 51.0724 249.582 50.5586L248.267 39.8828C248.202 39.369 247.945 39.048 247.624 39.0479L247.57 39.0566C247.309 39.112 247.112 39.5677 247.144 40.1094L247.689 50.335C247.719 50.913 247.272 51.3933 246.694 51.3936H238.967C238.422 51.3934 237.973 50.9438 237.973 50.3994V28.3447C237.973 27.8003 238.422 27.3507 238.967 27.3506H250.86ZM132.28 41.3604C131.736 41.3267 131.319 41.7761 131.319 42.6416V43.957C131.319 44.535 131.769 45.0461 132.344 44.918C132.953 44.8231 133.434 44.4677 133.434 43.3145C133.434 41.6785 132.953 41.391 132.28 41.3604ZM224.191 35.5234C223.421 35.5237 222.94 36.7419 222.94 39.4365C222.941 41.9351 223.39 43.2507 224.191 43.251C224.993 43.251 225.442 41.9354 225.442 39.4365C225.442 36.7447 224.962 35.5234 224.191 35.5234ZM156.996 35.7197C156.706 35.7197 156.452 36.0717 156.418 36.6162L156.066 40.8467C156.002 41.4887 156.323 41.8407 156.962 41.8408H157.029C157.672 41.8408 157.99 41.4888 157.926 40.8467L157.574 36.6162C157.544 36.0718 157.287 35.7198 156.996 35.7197ZM132.311 33.792C131.732 33.6972 131.316 34.1779 131.316 34.7529V35.8115C131.317 36.7413 131.797 37.2855 132.375 37.0928L132.535 37.0361C132.892 36.8649 133.112 36.4519 133.112 35.3008C133.112 34.1781 132.824 33.8562 132.311 33.792ZM170.629 0C173.737 0 176.368 0.257266 178.932 0.801758C179.348 0.896701 179.635 1.25176 179.635 1.69824V7.78809C179.635 8.61997 178.932 9.10333 178.097 8.84668C177.072 8.55914 175.563 8.23829 173.575 8.23828C171.299 8.23828 170.691 9.58338 172.679 9.71191C177.359 10.0331 180.277 11.5384 180.277 17.084C180.277 23.4007 176.622 25.1933 169.923 25.1934C165.5 25.1934 162.869 24.9063 161.651 24.7441L161.571 24.7305C161.166 24.63 160.884 24.2387 160.884 23.8174V17.4697C160.884 16.7632 161.462 16.3169 162.165 16.4453C163.383 16.6686 165.341 16.959 167.583 16.959C170.116 16.9588 170.724 15.2916 168.543 15.1631C163.156 14.8419 160.786 12.2788 160.786 7.75781C160.789 2.0836 164.701 9.92678e-05 170.629 0ZM157.74 0.578125C158.285 0.578352 158.734 1.02799 158.734 1.57227V7.91992C158.734 8.4642 158.285 8.91384 157.74 8.91406H152.225C151.68 8.91406 151.231 9.20127 151.231 9.62012C151.231 10.0392 151.68 10.3574 152.225 10.3574H156.137C156.681 10.3574 157.131 10.8072 157.131 11.3516V13.8506C157.131 14.3951 156.681 14.8447 156.137 14.8447H152.225C151.68 14.8447 151.231 15.1328 151.231 15.5488C151.231 15.9648 151.68 16.2861 152.225 16.2861H157.74C158.285 16.2864 158.734 16.7359 158.734 17.2803V23.6279C158.734 24.1721 158.284 24.6218 157.74 24.6221H142.127C141.583 24.6221 141.133 24.1722 141.133 23.6279V1.56934C141.133 1.02487 141.583 0.575204 142.127 0.575195L157.74 0.578125ZM130.325 0.575195C130.87 0.575195 131.319 1.02487 131.319 1.56934V13.7344C131.319 14.1504 131.769 14.4384 132.314 14.4385H137.829C138.374 14.4386 138.823 14.8882 138.823 15.4326V23.624C138.823 24.1684 138.374 24.618 137.829 24.6182H122.216C121.671 24.6181 121.222 24.1685 121.222 23.624V1.56934C121.222 1.02493 121.671 0.575297 122.216 0.575195H130.325Z" fill="#056131"/>
</svg>
