<svg viewBox="0 0 160.501 80.0102" fill="none" xmlns="http://www.w3.org/2000/svg">
<path d="M160.439 40.002C160.996 29.5907 157.327 18.9884 149.419 11.0805C134.645 -3.69349 110.47 -3.69349 95.6963 11.0805L80.1893 26.5875L64.9444 11.3426C50.6191 -2.98045 27.493 -3.86231 12.4325 9.68328C5.31757 16.0807 1.23924 24.5306 0.170783 33.2848H0.164119V33.3403C-0.133538 35.7993 0.0486102 64.5098 0.130799 75.6408C0.148569 78.0598 2.11443 80.0102 4.53567 80.0102H156.096C158.528 80.0102 160.501 78.0376 160.501 75.6075V40.0065H160.441L160.439 40.002Z" fill="#056131"/>
<path d="M139.56 45.4425C135.349 45.4425 132.054 46.8108 130.031 49.6919C128.007 46.8108 124.715 45.4425 120.501 45.4425C113.246 45.4425 108.711 49.492 108.711 58.3661C108.711 67.2403 112.889 71.0632 120.501 71.0632C124.802 71.0632 128.04 69.6815 130.024 66.9093C131.992 69.6682 135.215 71.0632 139.558 71.0632C147.073 71.0632 151.349 66.8516 151.349 58.3661C151.349 49.8807 146.815 45.4425 139.558 45.4425" fill="white"/>
<path d="M146.739 52.7083C145.635 52.7083 144.944 54.4565 144.944 58.3216C144.944 61.9112 145.588 63.7971 146.739 63.7971C147.89 63.7971 148.534 61.9112 148.534 58.3216C148.534 54.4565 147.843 52.7083 146.739 52.7083Z" fill="#056131"/>
<path d="M127.683 52.7083C126.579 52.7083 125.889 54.4565 125.889 58.3216C125.889 61.9112 126.533 63.7971 127.683 63.7971C128.834 63.7971 129.478 61.9112 129.478 58.3216C129.478 54.4565 128.787 52.7083 127.683 52.7083Z" fill="#056131"/>
</svg>
