<svg viewBox="0 0 503 272.839" fill="none" xmlns="http://www.w3.org/2000/svg">
<path d="M502.821 125.358C504.564 92.7338 493.078 59.5061 468.275 34.7249C421.975 -11.575 346.201 -11.575 299.901 34.7249L251.3 83.3264L202.698 34.7249C156.399 -11.575 80.625 -11.575 34.3252 34.7249C14.8622 54.1655 3.62245 78.8349 0.516429 104.309V104.488C-0.645536 114.074 0.516429 250.739 0.516429 250.739H503V125.358H502.821Z" fill="#FF93FF"/>
<path d="M440.5 178.518C441.818 153.983 433.17 129.001 414.534 110.365C379.72 75.5503 322.739 75.5503 287.925 110.365L251.367 146.922L214.81 110.365C179.996 75.5503 123.015 75.5503 88.2006 110.365C73.5643 125.001 65.1177 143.525 62.7715 162.698V162.832C61.9 170.049 62.7715 272.839 62.7715 272.839H440.656V178.563H440.522L440.5 178.518Z" fill="#FF9425"/>
<path d="M399.27 199.076C400.298 179.881 393.528 160.351 378.958 145.782C351.742 118.565 307.185 118.565 279.968 145.782L251.388 174.362L222.808 145.782C195.591 118.565 151.034 118.565 123.795 145.782C112.354 157.223 105.74 171.725 103.908 186.697V186.786C103.237 192.417 103.908 272.794 103.908 272.794H399.36V199.076H399.248H399.27Z" fill="#3BF7BB"/>
</svg>
